<?xml version="1.0" encoding="iso-8859-1"?>
<!-- Generator: Adobe Illustrator 19.0.0, SVG Export Plug-In . SVG Version: 6.00 Build 0)  -->
<svg version="1.1" id="Layer_1" xmlns="http://www.w3.org/2000/svg" xmlns:xlink="http://www.w3.org/1999/xlink" x="0px" y="0px"
	 viewBox="0 0 512 512" style="enable-background:new 0 0 512 512;" xml:space="preserve">
<g>
	<g>
		<path d="M435.2,102.4H25.6C11.46,102.4,0,113.86,0,128v179.2c0,14.14,11.46,25.6,25.6,25.6h409.6c14.14,0,25.6-11.46,25.6-25.6
			V128C460.8,113.86,449.34,102.4,435.2,102.4z M435.2,307.2H25.6V128h409.6V307.2z"/>
	</g>
</g>
<g>
	<g>
		<path d="M486.4,179.2V384H76.8v-25.6H51.2V384c0,14.14,11.46,25.6,25.6,25.6h409.6c14.14,0,25.6-11.46,25.6-25.6V204.8
			C512,190.66,500.54,179.2,486.4,179.2z"/>
	</g>
</g>
<g>
	<g>
		<path d="M230.4,153.6c-28.279,0-51.2,28.655-51.2,64c0,35.345,22.921,64,51.2,64c28.279,0,51.2-28.655,51.2-64
			C281.6,182.255,258.679,153.6,230.4,153.6z M230.4,256c-13.636,0-25.6-17.946-25.6-38.4c0-20.454,11.964-38.4,25.6-38.4
			c13.636,0,25.6,17.946,25.6,38.4C256,238.054,244.036,256,230.4,256z"/>
	</g>
</g>
<g>
</g>
<g>
</g>
<g>
</g>
<g>
</g>
<g>
</g>
<g>
</g>
<g>
</g>
<g>
</g>
<g>
</g>
<g>
</g>
<g>
</g>
<g>
</g>
<g>
</g>
<g>
</g>
<g>
</g>
</svg>
